<mxfile host="app.diagrams.net" modified="2023-10-04T11:19:29.249Z" agent="Mozilla/5.0 (Windows NT 10.0; Win64; x64; rv:109.0) Gecko/20100101 Firefox/118.0" etag="JHhscwN7ivtLpqmBhCST" version="21.7.2" type="github">
  <diagram name="Page-1" id="8Wzopw7m2Qg8zilJqCGv">
    <mxGraphModel dx="1434" dy="782" grid="1" gridSize="10" guides="1" tooltips="1" connect="1" arrows="1" fold="1" page="1" pageScale="1" pageWidth="850" pageHeight="1100" background="#E6E6E6" math="0" shadow="0">
      <root>
        <mxCell id="0" />
        <mxCell id="1" parent="0" />
        <mxCell id="iqF4aYzBkcHkCzeJV1qg-1" value="A Trie is a graph data structure that uses nodes to direct the flow" style="shape=process;whiteSpace=wrap;html=1;backgroundOutline=1;fillColor=#dae8fc;strokeColor=#6c8ebf;size=0.045454545454545456;" vertex="1" parent="1">
          <mxGeometry x="60" y="60" width="440" height="60" as="geometry" />
        </mxCell>
        <mxCell id="iqF4aYzBkcHkCzeJV1qg-3" value="Trie Node" style="swimlane;fontStyle=0;childLayout=stackLayout;horizontal=1;startSize=30;horizontalStack=0;resizeParent=1;resizeParentMax=0;resizeLast=0;collapsible=1;marginBottom=0;whiteSpace=wrap;html=1;fillColor=#dae8fc;strokeColor=#6c8ebf;" vertex="1" parent="1">
          <mxGeometry x="550" y="50" width="250" height="150" as="geometry" />
        </mxCell>
        <mxCell id="iqF4aYzBkcHkCzeJV1qg-4" value="Has a value" style="text;strokeColor=#9673a6;fillColor=#e1d5e7;align=left;verticalAlign=middle;spacingLeft=4;spacingRight=4;overflow=hidden;points=[[0,0.5],[1,0.5]];portConstraint=eastwest;rotatable=0;whiteSpace=wrap;html=1;" vertex="1" parent="iqF4aYzBkcHkCzeJV1qg-3">
          <mxGeometry y="30" width="250" height="30" as="geometry" />
        </mxCell>
        <mxCell id="iqF4aYzBkcHkCzeJV1qg-5" value="Has a data structure holding the references to the next nodes" style="text;strokeColor=#9673a6;fillColor=#e1d5e7;align=left;verticalAlign=middle;spacingLeft=4;spacingRight=4;overflow=hidden;points=[[0,0.5],[1,0.5]];portConstraint=eastwest;rotatable=0;whiteSpace=wrap;html=1;" vertex="1" parent="iqF4aYzBkcHkCzeJV1qg-3">
          <mxGeometry y="60" width="250" height="40" as="geometry" />
        </mxCell>
        <mxCell id="iqF4aYzBkcHkCzeJV1qg-6" value="Specifies if it is the end of word or not" style="text;strokeColor=#9673a6;fillColor=#e1d5e7;align=left;verticalAlign=middle;spacingLeft=4;spacingRight=4;overflow=hidden;points=[[0,0.5],[1,0.5]];portConstraint=eastwest;rotatable=0;whiteSpace=wrap;html=1;" vertex="1" parent="iqF4aYzBkcHkCzeJV1qg-3">
          <mxGeometry y="100" width="250" height="50" as="geometry" />
        </mxCell>
        <mxCell id="iqF4aYzBkcHkCzeJV1qg-8" value="&lt;div&gt;Root Node&lt;/div&gt;&lt;div&gt;- dummy char value&lt;/div&gt;&lt;div&gt;- Array / List&amp;lt;TrieNode&amp;gt; nextNodes&lt;/div&gt;&lt;div&gt;- boolean endOfWord - false&lt;br&gt;&lt;/div&gt;" style="ellipse;whiteSpace=wrap;html=1;fillColor=#dae8fc;strokeColor=#6c8ebf;" vertex="1" parent="1">
          <mxGeometry x="180" y="190" width="200" height="180" as="geometry" />
        </mxCell>
        <mxCell id="iqF4aYzBkcHkCzeJV1qg-9" value="&lt;font style=&quot;font-size: 36px;&quot;&gt;J&lt;/font&gt;" style="ellipse;whiteSpace=wrap;html=1;fontSize=36;fillColor=#d5e8d4;strokeColor=#82b366;" vertex="1" parent="1">
          <mxGeometry x="90" y="450" width="70" height="70" as="geometry" />
        </mxCell>
        <mxCell id="iqF4aYzBkcHkCzeJV1qg-10" value="&lt;font style=&quot;font-size: 36px;&quot;&gt;S&lt;/font&gt;" style="ellipse;whiteSpace=wrap;html=1;fillColor=#d5e8d4;strokeColor=#82b366;" vertex="1" parent="1">
          <mxGeometry x="410" y="450" width="70" height="70" as="geometry" />
        </mxCell>
        <mxCell id="iqF4aYzBkcHkCzeJV1qg-12" value="A" style="ellipse;whiteSpace=wrap;html=1;fontSize=36;fillColor=#d5e8d4;strokeColor=#82b366;" vertex="1" parent="1">
          <mxGeometry x="30" y="610" width="70" height="70" as="geometry" />
        </mxCell>
        <mxCell id="iqF4aYzBkcHkCzeJV1qg-13" value="V" style="ellipse;whiteSpace=wrap;html=1;fontSize=36;fillColor=#d5e8d4;strokeColor=#82b366;" vertex="1" parent="1">
          <mxGeometry x="30" y="730" width="70" height="70" as="geometry" />
        </mxCell>
        <mxCell id="iqF4aYzBkcHkCzeJV1qg-14" value="U" style="ellipse;whiteSpace=wrap;html=1;fontSize=36;fillColor=#d5e8d4;strokeColor=#82b366;" vertex="1" parent="1">
          <mxGeometry x="160" y="610" width="70" height="70" as="geometry" />
        </mxCell>
        <mxCell id="iqF4aYzBkcHkCzeJV1qg-16" value="A" style="ellipse;whiteSpace=wrap;html=1;fontSize=36;fillColor=#f8cecc;strokeColor=#b85450;" vertex="1" parent="1">
          <mxGeometry x="30" y="840" width="70" height="70" as="geometry" />
        </mxCell>
        <mxCell id="iqF4aYzBkcHkCzeJV1qg-18" value="M" style="ellipse;whiteSpace=wrap;html=1;fontSize=36;fillColor=#d5e8d4;strokeColor=#82b366;" vertex="1" parent="1">
          <mxGeometry x="160" y="730" width="70" height="70" as="geometry" />
        </mxCell>
        <mxCell id="iqF4aYzBkcHkCzeJV1qg-19" value="P" style="ellipse;whiteSpace=wrap;html=1;fontSize=36;fillColor=#f8cecc;strokeColor=#b85450;" vertex="1" parent="1">
          <mxGeometry x="160" y="840" width="70" height="70" as="geometry" />
        </mxCell>
        <mxCell id="iqF4aYzBkcHkCzeJV1qg-20" value="S" style="ellipse;whiteSpace=wrap;html=1;fontSize=36;fillColor=#f8cecc;strokeColor=#b85450;" vertex="1" parent="1">
          <mxGeometry x="160" y="950" width="70" height="70" as="geometry" />
        </mxCell>
        <mxCell id="iqF4aYzBkcHkCzeJV1qg-21" value="I" style="ellipse;whiteSpace=wrap;html=1;fontSize=36;fillColor=#d5e8d4;strokeColor=#82b366;" vertex="1" parent="1">
          <mxGeometry x="410" y="610" width="70" height="70" as="geometry" />
        </mxCell>
        <mxCell id="iqF4aYzBkcHkCzeJV1qg-40" value="" style="edgeStyle=orthogonalEdgeStyle;rounded=0;orthogonalLoop=1;jettySize=auto;html=1;" edge="1" parent="1" source="iqF4aYzBkcHkCzeJV1qg-22" target="iqF4aYzBkcHkCzeJV1qg-24">
          <mxGeometry relative="1" as="geometry" />
        </mxCell>
        <mxCell id="iqF4aYzBkcHkCzeJV1qg-22" value="G" style="ellipse;whiteSpace=wrap;html=1;fontSize=36;fillColor=#d5e8d4;strokeColor=#82b366;" vertex="1" parent="1">
          <mxGeometry x="340" y="730" width="70" height="70" as="geometry" />
        </mxCell>
        <mxCell id="iqF4aYzBkcHkCzeJV1qg-24" value="N" style="ellipse;whiteSpace=wrap;html=1;fontSize=36;fillColor=#f8cecc;strokeColor=#b85450;" vertex="1" parent="1">
          <mxGeometry x="340" y="840" width="70" height="70" as="geometry" />
        </mxCell>
        <mxCell id="iqF4aYzBkcHkCzeJV1qg-27" value="N" style="ellipse;whiteSpace=wrap;html=1;fontSize=36;fillColor=#d5e8d4;strokeColor=#82b366;" vertex="1" parent="1">
          <mxGeometry x="490" y="730" width="70" height="70" as="geometry" />
        </mxCell>
        <mxCell id="iqF4aYzBkcHkCzeJV1qg-28" value="G" style="ellipse;whiteSpace=wrap;html=1;fontSize=36;fillColor=#f8cecc;strokeColor=#b85450;" vertex="1" parent="1">
          <mxGeometry x="490" y="840" width="70" height="70" as="geometry" />
        </mxCell>
        <mxCell id="iqF4aYzBkcHkCzeJV1qg-29" value="" style="shape=flexArrow;endArrow=classic;html=1;rounded=0;exitX=0.45;exitY=1;exitDx=0;exitDy=0;exitPerimeter=0;entryX=0.614;entryY=0.029;entryDx=0;entryDy=0;entryPerimeter=0;" edge="1" parent="1" source="iqF4aYzBkcHkCzeJV1qg-8" target="iqF4aYzBkcHkCzeJV1qg-9">
          <mxGeometry width="50" height="50" relative="1" as="geometry">
            <mxPoint x="400" y="690" as="sourcePoint" />
            <mxPoint x="450" y="640" as="targetPoint" />
          </mxGeometry>
        </mxCell>
        <mxCell id="iqF4aYzBkcHkCzeJV1qg-30" value="" style="shape=flexArrow;endArrow=classic;html=1;rounded=0;entryX=0.2;entryY=0.043;entryDx=0;entryDy=0;entryPerimeter=0;exitX=0.5;exitY=1;exitDx=0;exitDy=0;exitPerimeter=0;" edge="1" parent="1" source="iqF4aYzBkcHkCzeJV1qg-8" target="iqF4aYzBkcHkCzeJV1qg-10">
          <mxGeometry width="50" height="50" relative="1" as="geometry">
            <mxPoint x="280" y="380" as="sourcePoint" />
            <mxPoint x="143" y="462" as="targetPoint" />
          </mxGeometry>
        </mxCell>
        <mxCell id="iqF4aYzBkcHkCzeJV1qg-31" value="" style="shape=flexArrow;endArrow=classic;html=1;rounded=0;entryX=0.5;entryY=0;entryDx=0;entryDy=0;exitX=0.5;exitY=1;exitDx=0;exitDy=0;" edge="1" parent="1" source="iqF4aYzBkcHkCzeJV1qg-10" target="iqF4aYzBkcHkCzeJV1qg-21">
          <mxGeometry width="50" height="50" relative="1" as="geometry">
            <mxPoint x="290" y="380" as="sourcePoint" />
            <mxPoint x="434" y="463" as="targetPoint" />
          </mxGeometry>
        </mxCell>
        <mxCell id="iqF4aYzBkcHkCzeJV1qg-32" value="" style="shape=flexArrow;endArrow=classic;html=1;rounded=0;entryX=0.671;entryY=0;entryDx=0;entryDy=0;exitX=0.5;exitY=1;exitDx=0;exitDy=0;entryPerimeter=0;" edge="1" parent="1" source="iqF4aYzBkcHkCzeJV1qg-21" target="iqF4aYzBkcHkCzeJV1qg-22">
          <mxGeometry width="50" height="50" relative="1" as="geometry">
            <mxPoint x="455" y="530" as="sourcePoint" />
            <mxPoint x="455" y="620" as="targetPoint" />
          </mxGeometry>
        </mxCell>
        <mxCell id="iqF4aYzBkcHkCzeJV1qg-33" value="" style="shape=flexArrow;endArrow=classic;html=1;rounded=0;entryX=0.314;entryY=0.071;entryDx=0;entryDy=0;entryPerimeter=0;" edge="1" parent="1" target="iqF4aYzBkcHkCzeJV1qg-27">
          <mxGeometry width="50" height="50" relative="1" as="geometry">
            <mxPoint x="450" y="680" as="sourcePoint" />
            <mxPoint x="397" y="740" as="targetPoint" />
          </mxGeometry>
        </mxCell>
        <mxCell id="iqF4aYzBkcHkCzeJV1qg-34" value="" style="shape=flexArrow;endArrow=classic;html=1;rounded=0;exitX=0.5;exitY=1;exitDx=0;exitDy=0;" edge="1" parent="1" source="iqF4aYzBkcHkCzeJV1qg-27" target="iqF4aYzBkcHkCzeJV1qg-28">
          <mxGeometry width="50" height="50" relative="1" as="geometry">
            <mxPoint x="510" y="800" as="sourcePoint" />
            <mxPoint x="572" y="855" as="targetPoint" />
          </mxGeometry>
        </mxCell>
        <mxCell id="iqF4aYzBkcHkCzeJV1qg-35" value="" style="shape=flexArrow;endArrow=classic;html=1;rounded=0;exitX=0.5;exitY=1;exitDx=0;exitDy=0;entryX=0.5;entryY=0;entryDx=0;entryDy=0;" edge="1" parent="1" source="iqF4aYzBkcHkCzeJV1qg-22" target="iqF4aYzBkcHkCzeJV1qg-24">
          <mxGeometry width="50" height="50" relative="1" as="geometry">
            <mxPoint x="535" y="810" as="sourcePoint" />
            <mxPoint x="535" y="850" as="targetPoint" />
          </mxGeometry>
        </mxCell>
        <mxCell id="iqF4aYzBkcHkCzeJV1qg-37" value="" style="shape=flexArrow;endArrow=classic;html=1;rounded=0;entryX=0.5;entryY=0;entryDx=0;entryDy=0;exitX=0.5;exitY=1;exitDx=0;exitDy=0;" edge="1" parent="1" source="iqF4aYzBkcHkCzeJV1qg-9" target="iqF4aYzBkcHkCzeJV1qg-12">
          <mxGeometry width="50" height="50" relative="1" as="geometry">
            <mxPoint x="455" y="530" as="sourcePoint" />
            <mxPoint x="455" y="620" as="targetPoint" />
          </mxGeometry>
        </mxCell>
        <mxCell id="iqF4aYzBkcHkCzeJV1qg-38" value="" style="shape=flexArrow;endArrow=classic;html=1;rounded=0;exitX=0.614;exitY=0.971;exitDx=0;exitDy=0;exitPerimeter=0;" edge="1" parent="1" source="iqF4aYzBkcHkCzeJV1qg-9" target="iqF4aYzBkcHkCzeJV1qg-14">
          <mxGeometry width="50" height="50" relative="1" as="geometry">
            <mxPoint x="135" y="530" as="sourcePoint" />
            <mxPoint x="75" y="620" as="targetPoint" />
            <Array as="points">
              <mxPoint x="190" y="610" />
            </Array>
          </mxGeometry>
        </mxCell>
        <mxCell id="iqF4aYzBkcHkCzeJV1qg-41" value="" style="shape=flexArrow;endArrow=classic;html=1;rounded=0;exitX=0.5;exitY=1;exitDx=0;exitDy=0;entryX=0.5;entryY=0;entryDx=0;entryDy=0;" edge="1" parent="1" source="iqF4aYzBkcHkCzeJV1qg-18" target="iqF4aYzBkcHkCzeJV1qg-19">
          <mxGeometry width="50" height="50" relative="1" as="geometry">
            <mxPoint x="535" y="810" as="sourcePoint" />
            <mxPoint x="535" y="850" as="targetPoint" />
          </mxGeometry>
        </mxCell>
        <mxCell id="iqF4aYzBkcHkCzeJV1qg-42" value="" style="shape=flexArrow;endArrow=classic;html=1;rounded=0;exitX=0.5;exitY=1;exitDx=0;exitDy=0;entryX=0.5;entryY=0;entryDx=0;entryDy=0;" edge="1" parent="1" source="iqF4aYzBkcHkCzeJV1qg-13" target="iqF4aYzBkcHkCzeJV1qg-16">
          <mxGeometry width="50" height="50" relative="1" as="geometry">
            <mxPoint x="205" y="810" as="sourcePoint" />
            <mxPoint x="205" y="850" as="targetPoint" />
          </mxGeometry>
        </mxCell>
        <mxCell id="iqF4aYzBkcHkCzeJV1qg-43" value="" style="shape=flexArrow;endArrow=classic;html=1;rounded=0;exitX=0.629;exitY=1.014;exitDx=0;exitDy=0;entryX=0.5;entryY=0;entryDx=0;entryDy=0;exitPerimeter=0;" edge="1" parent="1" source="iqF4aYzBkcHkCzeJV1qg-12" target="iqF4aYzBkcHkCzeJV1qg-13">
          <mxGeometry width="50" height="50" relative="1" as="geometry">
            <mxPoint x="75" y="810" as="sourcePoint" />
            <mxPoint x="75" y="850" as="targetPoint" />
          </mxGeometry>
        </mxCell>
        <mxCell id="iqF4aYzBkcHkCzeJV1qg-44" value="" style="shape=flexArrow;endArrow=classic;html=1;rounded=0;exitX=0.5;exitY=1;exitDx=0;exitDy=0;entryX=0.5;entryY=0;entryDx=0;entryDy=0;" edge="1" parent="1" source="iqF4aYzBkcHkCzeJV1qg-14" target="iqF4aYzBkcHkCzeJV1qg-18">
          <mxGeometry width="50" height="50" relative="1" as="geometry">
            <mxPoint x="84" y="691" as="sourcePoint" />
            <mxPoint x="75" y="740" as="targetPoint" />
          </mxGeometry>
        </mxCell>
        <mxCell id="iqF4aYzBkcHkCzeJV1qg-45" value="" style="shape=flexArrow;endArrow=classic;html=1;rounded=0;exitX=0.5;exitY=1;exitDx=0;exitDy=0;entryX=0.5;entryY=0;entryDx=0;entryDy=0;" edge="1" parent="1" source="iqF4aYzBkcHkCzeJV1qg-19" target="iqF4aYzBkcHkCzeJV1qg-20">
          <mxGeometry width="50" height="50" relative="1" as="geometry">
            <mxPoint x="205" y="690" as="sourcePoint" />
            <mxPoint x="205" y="740" as="targetPoint" />
          </mxGeometry>
        </mxCell>
        <mxCell id="iqF4aYzBkcHkCzeJV1qg-46" value="" style="endArrow=classic;html=1;rounded=0;entryX=0.985;entryY=0.689;entryDx=0;entryDy=0;entryPerimeter=0;" edge="1" parent="1" target="iqF4aYzBkcHkCzeJV1qg-8">
          <mxGeometry width="50" height="50" relative="1" as="geometry">
            <mxPoint x="500" y="340" as="sourcePoint" />
            <mxPoint x="450" y="490" as="targetPoint" />
          </mxGeometry>
        </mxCell>
        <mxCell id="iqF4aYzBkcHkCzeJV1qg-49" value="&lt;div&gt;A Trie containing the words:&lt;/div&gt;&lt;div&gt;JUMPS&lt;br&gt;&lt;/div&gt;&lt;div&gt;JAVA&lt;/div&gt;&lt;div&gt;SIGN&lt;/div&gt;&lt;div&gt;SiNG&lt;/div&gt;&lt;div&gt;JUMP&lt;br&gt;&lt;/div&gt;" style="rounded=1;whiteSpace=wrap;html=1;fillColor=#e1d5e7;strokeColor=#9673a6;" vertex="1" parent="1">
          <mxGeometry x="500" y="310" width="310" height="110" as="geometry" />
        </mxCell>
      </root>
    </mxGraphModel>
  </diagram>
</mxfile>
